<?xml version="1.0"?><svg id="Capa_1" xmlns="http://www.w3.org/2000/svg" viewBox="-10.35 244.65 634.70 150.70"><defs></defs><g><path class="cls-4" fill="#1d1d1b" d="M312.69,365.06h-7.6v-89.94h7.6v89.94Z"></path><path class="cls-4" fill="#1d1d1b" d="M346.36,365.06h-7.6v-89.94h7.6v89.94Z"></path><path class="cls-4" fill="#1d1d1b" d="M421.67,342.95c0-4.98-1.75-8.93-5.25-11.83-3.5-2.91-9.9-5.67-19.21-8.28-9.31-2.62-16.1-5.47-20.39-8.56-6.09-4.36-9.14-10.09-9.14-17.17s2.83-12.47,8.5-16.77c5.66-4.3,12.9-6.45,21.71-6.45,5.97,0,11.31,1.15,16.03,3.46,4.72,2.31,8.37,5.52,10.97,9.64,2.59,4.12,3.89,8.71,3.89,13.77h-7.66c0-6.15-2.1-11.1-6.3-14.84-4.2-3.74-9.84-5.61-16.93-5.61s-12.35,1.54-16.44,4.61c-4.08,3.07-6.11,7.08-6.11,12.03,0,4.58,1.83,8.31,5.5,11.2,3.66,2.89,9.53,5.44,17.61,7.64s14.19,4.49,18.35,6.86c4.16,2.37,7.29,5.2,9.39,8.5s3.15,7.18,3.15,11.67c0,7.08-2.83,12.77-8.49,17.05-5.67,4.28-13.13,6.42-22.39,6.42-6.34,0-12.16-1.13-17.45-3.4-5.29-2.27-9.31-5.44-12.05-9.51s-4.11-8.75-4.11-14.02h7.6c0,6.35,2.37,11.35,7.1,15.01s11.04,5.5,18.9,5.5c7,0,12.62-1.54,16.86-4.64,4.24-3.09,6.36-7.18,6.36-12.29Z"></path><path class="cls-4" fill="#1d1d1b" d="M514.75,353.95c-3.33,3.71-8.22,6.69-14.64,8.96-6.43,2.27-13.46,3.4-21.13,3.4-11.78,0-21.19-3.6-28.23-10.81-7.04-7.2-10.81-17.23-11.31-30.08l-.06-7.78c0-8.85,1.56-16.59,4.7-23.2,3.13-6.61,7.61-11.69,13.43-15.26s12.57-5.35,20.23-5.35c11.2,0,19.9,2.57,26.1,7.69,6.2,5.13,9.81,12.78,10.84,22.95h-20.88c-.74-5.02-2.35-8.61-4.82-10.75-2.47-2.14-5.97-3.21-10.5-3.21-5.43,0-9.64,2.31-12.6,6.92s-4.47,11.2-4.51,19.77v5.44c0,8.98,1.53,15.72,4.61,20.23,3.07,4.51,7.9,6.77,14.48,6.77,5.64,0,9.84-1.26,12.6-3.77v-13.96h-15.07v-14.89h36.76v36.94Z"></path><path class="cls-4" fill="#1d1d1b" d="M573.75,341.16c0-3.17-1.13-5.64-3.36-7.41-2.24-1.77-6.19-3.6-11.83-5.5-5.65-1.89-10.26-3.72-13.84-5.5-11.65-5.72-17.49-13.59-17.49-23.59,0-4.98,1.45-9.38,4.36-13.19,2.9-3.81,7.01-6.78,12.32-8.9,5.31-2.12,11.28-3.18,17.91-3.18s12.26,1.15,17.39,3.46c5.13,2.31,9.11,5.59,11.95,9.85,2.84,4.26,4.26,9.14,4.26,14.61h-21.62c0-3.66-1.12-6.5-3.36-8.52s-5.28-3.03-9.11-3.03-6.93,.85-9.18,2.56-3.36,3.88-3.36,6.52c0,2.31,1.24,4.39,3.71,6.27,2.47,1.88,6.82,3.81,13.03,5.81,6.22,2,11.33,4.15,15.32,6.46,9.72,5.6,14.58,13.32,14.58,23.17,0,7.86-2.97,14.04-8.89,18.53-5.93,4.49-14.07,6.73-24.4,6.73-7.29,0-13.89-1.31-19.8-3.92-5.91-2.62-10.36-6.2-13.34-10.75s-4.47-9.79-4.47-15.72h21.74c0,4.82,1.25,8.37,3.74,10.65s6.54,3.43,12.14,3.43c3.58,0,6.41-.77,8.5-2.32,2.08-1.54,3.12-3.71,3.12-6.52Z"></path></g><g><path class="cls-2" fill="#a0b5cd" d="M141.19,338.66l42.1-42.1c3.25-3.25,7.52-4.88,11.79-4.88,2.81,0,5.62,.71,8.14,2.13h0c1.3,.73,2.52,1.65,3.62,2.75,6.5,6.5,6.5,17.04,0,23.55l-17.95,17.95c-1.94,1.94-4.05,3.6-6.27,4.98-13.1,8.15-30.31,6.74-41.43-4.38Z"></path><path class="cls-3" fill="#67a8dc" d="M75.06,321.2l19.04-19.04c1.82-1.82,3.79-3.38,5.88-4.69,12.86-8.06,30.03-6.5,41.21,4.69l-42.59,42.59c-3.25,3.25-7.52,4.88-11.79,4.87-1.99,0-3.99-.36-5.88-1.07-2.14-.81-4.15-2.08-5.88-3.8-6.5-6.5-6.5-17.04,0-23.54Z"></path><path class="cls-3" fill="#67a8dc" d="M211.83,325.7l24.15-24.15c3.25-3.25,7.52-4.88,11.79-4.88,2.81,0,5.62,.71,8.14,2.13h0c1.3,.73,2.52,1.65,3.62,2.75,6.5,6.5,6.5,17.04,0,23.55h0c-1.94,1.94-4.05,3.6-6.27,4.98-13.1,8.15-30.31,6.74-41.43-4.38Z"></path><path class="cls-1" fill="#406988" d="M29.34,310.43c12.86-8.06,30.03-6.5,41.22,4.69l23.54,23.54,11.77,11.77c3.22,3.22,6.77,5.91,10.54,8.06,1.03,.59,2.07,1.14,3.13,1.65,.04,.02,.07,.04,.11,.05,13.58,6.49,29.49,6.49,43.07,0,4.98-2.38,9.65-5.63,13.78-9.76l7.09-7.09c1.13,.77,2.27,1.51,3.44,2.19,1.03,.59,2.07,1.14,3.13,1.65,.04,.02,.07,.04,.11,.05,13.58,6.49,29.49,6.49,43.07,0,4.98-2.38,9.65-5.63,13.78-9.76l12.38-12.38c-1.94,1.94-4.05,3.6-6.27,4.98-13.1,8.15-30.31,6.74-41.43-4.38l-24.52-24.52-10.8-10.8c-3.22-3.22-6.77-5.91-10.54-8.06-1.03-.59-2.07-1.13-3.13-1.64-.04-.02-.08-.04-.11-.05-13.58-6.49-29.49-6.49-43.07,0-4.98,2.38-9.65,5.63-13.78,9.76l-7.09,7.09c-1.13-.77-2.27-1.52-3.44-2.19-1.03-.59-2.07-1.13-3.13-1.64-.04-.02-.08-.04-.11-.05-13.58-6.49-29.49-6.49-43.07,0-4.98,2.38-9.65,5.63-13.78,9.76l-11.77,11.77c1.82-1.82,3.79-3.38,5.88-4.69Zm70.64-12.97c12.86-8.06,30.02-6.5,41.21,4.69l23.54,23.54,11.77,11.77c2.01,2.01,4.15,3.78,6.39,5.38-.1,.06-.18,.14-.28,.2-13.1,8.15-30.31,6.74-41.43-4.38l-24.52-24.52-10.8-10.8c-2.04-2.04-4.23-3.84-6.5-5.46,.21-.14,.4-.3,.6-.43Z"></path><path class="cls-2" fill="#a0b5cd" d="M23.47,315.12h0c1.82-1.82,3.79-3.38,5.88-4.69,12.86-8.06,30.03-6.5,41.21,4.69l-23.55,23.55c-3.25,3.25-7.52,4.88-11.79,4.87-1.99,0-3.99-.36-5.88-1.07-2.14-.81-4.15-2.08-5.88-3.8-6.5-6.5-6.5-17.04,0-23.54Z"></path></g></svg>